# xmcd
#
# Track frame offsets:
#       150
#       24388
#       47741
#       72359
#       99127
#       123416
#       159776
#       184408
#       208465
#       234358
#       258442
#       282669
#
# Disc length: 4090 seconds
#
# Revision: 0
# Processed by: cddbd v1.5.1PL0 Copyright (c) Steve Scherf et al.
# Submitted via: WaveLab 4.01
#
DISCID=a90ff80c
DTITLE=Tam Doan - May Chieu Son Chong
DYEAR=2004
DGENRE=
TTITLE0=Son Chong
TTITLE1=Biet Ly
TTITLE2=Lien Khuc Gian Hon - Dem Cuoi
TTITLE3=Giot Buon Khong  Ten
TTITLE4=Tinh Dang Ly Kho Qua
TTITLE5=Chuyen Tinh Co Lai Do Ben Ha
TTITLE6=Ru lai Cau Ho
TTITLE7=Neu Anh Dung Hen
TTITLE8=May Chieu
TTITLE9=Yeu Lam
TTITLE10=Bonus - Son Chong (Kara)
TTITLE11=Bonus - Tinh Dang Ly Kho Qua (Kara)
EXTD=
EXTT0=
EXTT1=
EXTT2=
EXTT3=
EXTT4=
EXTT5=
EXTT6=
EXTT7=
EXTT8=
EXTT9=
EXTT10=
EXTT11=
PLAYORDER=
